<svg width="77" height="20" viewBox="0 0 77 20" fill="none" xmlns="http://www.w3.org/2000/svg">
<path d="M0.517045 19V1.54545H12.0739V4.58807H4.20739V8.74716H11.3068V11.7898H4.20739V19H0.517045ZM19.4418 19.2557C18.1179 19.2557 16.973 18.9744 16.0071 18.4119C15.0469 17.8437 14.3054 17.054 13.7827 16.0426C13.2599 15.0256 12.9986 13.8466 12.9986 12.5057C12.9986 11.1534 13.2599 9.97159 13.7827 8.96023C14.3054 7.94318 15.0469 7.15341 16.0071 6.59091C16.973 6.02273 18.1179 5.73864 19.4418 5.73864C20.7656 5.73864 21.9077 6.02273 22.8679 6.59091C23.8338 7.15341 24.5781 7.94318 25.1009 8.96023C25.6236 9.97159 25.8849 11.1534 25.8849 12.5057C25.8849 13.8466 25.6236 15.0256 25.1009 16.0426C24.5781 17.054 23.8338 17.8437 22.8679 18.4119C21.9077 18.9744 20.7656 19.2557 19.4418 19.2557ZM19.4588 16.4432C20.0611 16.4432 20.5639 16.2727 20.9673 15.9318C21.3707 15.5852 21.6747 15.1136 21.8793 14.517C22.0895 13.9205 22.1946 13.2415 22.1946 12.4801C22.1946 11.7188 22.0895 11.0398 21.8793 10.4432C21.6747 9.84659 21.3707 9.375 20.9673 9.02841C20.5639 8.68182 20.0611 8.50852 19.4588 8.50852C18.8509 8.50852 18.3395 8.68182 17.9247 9.02841C17.5156 9.375 17.206 9.84659 16.9957 10.4432C16.7912 11.0398 16.6889 11.7188 16.6889 12.4801C16.6889 13.2415 16.7912 13.9205 16.9957 14.517C17.206 15.1136 17.5156 15.5852 17.9247 15.9318C18.3395 16.2727 18.8509 16.4432 19.4588 16.4432ZM34.1605 19.2557C32.8366 19.2557 31.6918 18.9744 30.7259 18.4119C29.7656 17.8437 29.0241 17.054 28.5014 16.0426C27.9787 15.0256 27.7173 13.8466 27.7173 12.5057C27.7173 11.1534 27.9787 9.97159 28.5014 8.96023C29.0241 7.94318 29.7656 7.15341 30.7259 6.59091C31.6918 6.02273 32.8366 5.73864 34.1605 5.73864C35.4844 5.73864 36.6264 6.02273 37.5866 6.59091C38.5526 7.15341 39.2969 7.94318 39.8196 8.96023C40.3423 9.97159 40.6037 11.1534 40.6037 12.5057C40.6037 13.8466 40.3423 15.0256 39.8196 16.0426C39.2969 17.054 38.5526 17.8437 37.5866 18.4119C36.6264 18.9744 35.4844 19.2557 34.1605 19.2557ZM34.1776 16.4432C34.7798 16.4432 35.2827 16.2727 35.6861 15.9318C36.0895 15.5852 36.3935 15.1136 36.598 14.517C36.8082 13.9205 36.9134 13.2415 36.9134 12.4801C36.9134 11.7188 36.8082 11.0398 36.598 10.4432C36.3935 9.84659 36.0895 9.375 35.6861 9.02841C35.2827 8.68182 34.7798 8.50852 34.1776 8.50852C33.5696 8.50852 33.0582 8.68182 32.6435 9.02841C32.2344 9.375 31.9247 9.84659 31.7145 10.4432C31.5099 11.0398 31.4077 11.7188 31.4077 12.4801C31.4077 13.2415 31.5099 13.9205 31.7145 14.517C31.9247 15.1136 32.2344 15.5852 32.6435 15.9318C33.0582 16.2727 33.5696 16.4432 34.1776 16.4432ZM47.7884 19.2131C46.794 19.2131 45.8935 18.9574 45.0866 18.446C44.2855 17.929 43.6491 17.1705 43.1776 16.1705C42.7116 15.1648 42.4787 13.9318 42.4787 12.4716C42.4787 10.9716 42.7202 9.72443 43.2031 8.73011C43.6861 7.73011 44.3281 6.98295 45.1293 6.48864C45.9361 5.98864 46.8196 5.73864 47.7798 5.73864C48.5128 5.73864 49.1236 5.86364 49.6122 6.11364C50.1065 6.35795 50.5043 6.66477 50.8054 7.03409C51.1122 7.39773 51.3452 7.75568 51.5043 8.10795H51.6151V1.54545H55.2372V19H51.6577V16.9034H51.5043C51.3338 17.267 51.0923 17.6278 50.7798 17.9858C50.473 18.3381 50.0724 18.6307 49.5781 18.8636C49.0895 19.0966 48.4929 19.2131 47.7884 19.2131ZM48.9389 16.3239C49.5241 16.3239 50.0185 16.1648 50.4219 15.8466C50.831 15.5227 51.1435 15.071 51.3594 14.4915C51.581 13.9119 51.6918 13.233 51.6918 12.4545C51.6918 11.6761 51.5838 11 51.3679 10.4261C51.152 9.85227 50.8395 9.40909 50.4304 9.09659C50.0213 8.78409 49.5241 8.62784 48.9389 8.62784C48.3423 8.62784 47.8395 8.78977 47.4304 9.11364C47.0213 9.4375 46.7116 9.88636 46.5014 10.4602C46.2912 11.0341 46.1861 11.6989 46.1861 12.4545C46.1861 13.2159 46.2912 13.8892 46.5014 14.4744C46.7173 15.054 47.027 15.5085 47.4304 15.8381C47.8395 16.1619 48.3423 16.3239 48.9389 16.3239ZM58.2223 19V5.90909H61.853V19H58.2223ZM60.0462 4.22159C59.5064 4.22159 59.0433 4.04261 58.657 3.68466C58.2763 3.32102 58.0859 2.88636 58.0859 2.38068C58.0859 1.88068 58.2763 1.4517 58.657 1.09375C59.0433 0.730113 59.5064 0.548295 60.0462 0.548295C60.5859 0.548295 61.0462 0.730113 61.4268 1.09375C61.8132 1.4517 62.0064 1.88068 62.0064 2.38068C62.0064 2.88636 61.8132 3.32102 61.4268 3.68466C61.0462 4.04261 60.5859 4.22159 60.0462 4.22159ZM70.7273 19.2557C69.3807 19.2557 68.2216 18.983 67.25 18.4375C66.2841 17.8864 65.5398 17.108 65.017 16.1023C64.4943 15.0909 64.233 13.8949 64.233 12.5142C64.233 11.1676 64.4943 9.9858 65.017 8.96875C65.5398 7.9517 66.2756 7.15909 67.2244 6.59091C68.179 6.02273 69.2983 5.73864 70.5824 5.73864C71.446 5.73864 72.25 5.87784 72.9943 6.15625C73.7443 6.42898 74.3977 6.84091 74.9545 7.39205C75.517 7.94318 75.9545 8.63636 76.267 9.47159C76.5795 10.3011 76.7358 11.2727 76.7358 12.3864V13.3835H65.6818V11.1335H73.3182C73.3182 10.6108 73.2045 10.1477 72.9773 9.74432C72.75 9.34091 72.4347 9.02557 72.0312 8.7983C71.6335 8.56534 71.1705 8.44886 70.642 8.44886C70.0909 8.44886 69.6023 8.5767 69.1761 8.83239C68.7557 9.08239 68.4261 9.42045 68.1875 9.84659C67.9489 10.267 67.8267 10.7358 67.821 11.2528V13.392C67.821 14.0398 67.9403 14.5994 68.179 15.071C68.4233 15.5426 68.767 15.9062 69.2102 16.1619C69.6534 16.4176 70.179 16.5455 70.7869 16.5455C71.1903 16.5455 71.5597 16.4886 71.8949 16.375C72.2301 16.2614 72.517 16.0909 72.7557 15.8636C72.9943 15.6364 73.1761 15.358 73.3011 15.0284L76.6591 15.25C76.4886 16.0568 76.1392 16.7614 75.6108 17.3636C75.0881 17.9602 74.4119 18.4261 73.5824 18.7614C72.7585 19.0909 71.8068 19.2557 70.7273 19.2557Z" fill="black"/>
</svg>
